<?xml version="1.0" encoding="UTF-8" standalone="no"?>
<svg width="81px" height="82px" viewBox="0 0 81 82" version="1.1" xmlns="http://www.w3.org/2000/svg" xmlns:xlink="http://www.w3.org/1999/xlink" xmlns:sketch="http://www.bohemiancoding.com/sketch/ns">
    <!-- Generator: Sketch 3.3.3 (12072) - http://www.bohemiancoding.com/sketch -->
    <title>dragndrop</title>
    <desc>Created with Sketch.</desc>
    <defs></defs>
    <g id="Page-1" stroke="none" stroke-width="1" fill="none" fill-rule="evenodd" sketch:type="MSPage">
        <g id="dragndrop" sketch:type="MSLayerGroup">
            <path d="M80.7992609,80.3515172 L73.9758913,59.5344741 C73.971313,59.5210431 73.9603957,59.5122069 73.9554652,59.4987759 C73.9297565,59.4295 73.8885522,59.3718879 73.8491087,59.3110948 C73.8163565,59.2605517 73.7902957,59.2064741 73.7501478,59.1633534 C73.7057739,59.1156379 73.6504826,59.0831207 73.5976565,59.0445948 C73.5451826,59.0067759 73.4979913,58.965069 73.4398826,58.9378534 C73.386,58.9127586 73.3261304,58.9046293 73.2673174,58.8890776 C73.1979391,58.8706983 73.1310261,58.8498448 73.0577739,58.8466638 C73.043687,58.8459569 73.0320652,58.8385345 73.0176261,58.8385345 L31.1254826,58.8385345 C30.5683435,58.8385345 30.1165043,59.2920086 30.1165043,59.8508103 C30.1165043,60.4099655 30.5683435,60.8630862 31.1254826,60.8630862 L72.2879217,60.8630862 L78.4474435,79.6555776 L2.55255652,79.6555776 L8.71243043,60.8630862 L13.4065565,60.8630862 C13.9633435,60.8630862 14.4151826,60.4099655 14.4151826,59.8508103 C14.4151826,59.2920086 13.9633435,58.8385345 13.4065565,58.8385345 L7.98237391,58.8385345 C7.96793478,58.8385345 7.95596087,58.8463103 7.94187391,58.8466638 C7.86862174,58.8498448 7.8017087,58.8710517 7.73197826,58.889431 C7.67351739,58.9046293 7.614,58.9127586 7.56046957,58.9378534 C7.50130435,58.9654224 7.4534087,59.0078362 7.40058261,59.0460086 C7.34846087,59.084181 7.29422609,59.1159914 7.25020435,59.163 C7.20970435,59.2064741 7.1832913,59.2609052 7.15018696,59.3118017 C7.11109565,59.3725948 7.07024348,59.4298534 7.04453478,59.4987759 C7.03960435,59.5122069 7.02868696,59.5210431 7.0241087,59.5344741 L0.20073913,80.3515172 C0.0996652174,80.6600776 0.15213913,80.9983276 0.341608696,81.2612931 C0.531430435,81.5242586 0.835356522,81.6801293 1.15900435,81.6801293 L79.8413478,81.6801293 C80.1646435,81.6801293 80.4685696,81.5242586 80.6583913,81.2612931 C80.8478609,80.9983276 80.9003348,80.6600776 80.7992609,80.3515172" id="Fill-1" fill="#343135" sketch:type="MSShapeGroup"></path>
            <path d="M19.1241,59.9674483 C19.1047304,60.0455603 19.0762043,60.1208448 19.0762043,60.205319 L19.0762043,69.7908362 C19.0762043,70.1382759 19.2540522,70.461681 19.5470609,70.6472414 C20.373613,71.1699914 21.3220174,71.4326034 22.2746478,71.4326034 C23.2223478,71.4326034 24.1746261,71.1724655 25.0131522,70.6493621 C25.3082739,70.4645086 25.4875304,70.1400431 25.4875304,69.7908362 L25.4875304,60.205319 C25.4875304,60.1208448 25.4593565,60.0455603 25.4396348,59.9674483 C27.4646348,58.8456034 28.8398739,56.6828534 28.8398739,54.2023534 C28.8398739,50.5731466 25.897813,47.6204397 22.2820435,47.6204397 C18.6659217,47.6204397 15.7238609,50.5731466 15.7238609,54.2023534 C15.7238609,56.6828534 17.0994522,58.8459569 19.1241,59.9674483 L19.1241,59.9674483 Z M23.4702783,69.1779569 C22.7120478,69.4904052 21.851687,69.4900517 21.0934565,69.1779569 L21.0934565,60.6701034 C21.4797913,60.7415 21.8756348,60.7839138 22.2820435,60.7839138 C22.6881,60.7839138 23.0842957,60.7415 23.4702783,60.6701034 L23.4702783,69.1779569 L23.4702783,69.1779569 Z M22.2820435,49.6453448 C24.7856478,49.6453448 26.8226217,51.6893362 26.8226217,54.2023534 C26.8226217,56.7150172 24.7856478,58.7593621 22.2820435,58.7593621 C19.7784391,58.7593621 17.741113,56.7150172 17.741113,54.2023534 C17.741113,51.6893362 19.7784391,49.6453448 22.2820435,49.6453448 L22.2820435,49.6453448 Z" id="Fill-2" fill="#85BF44" sketch:type="MSShapeGroup"></path>
            <path d="M10.6451609,71.0823362 C10.6451609,72.464319 12.0302609,73.5748534 14.7613696,74.3831897 C16.923013,75.0225776 19.6583478,75.3894569 22.2658435,75.3894569 C24.8733391,75.3894569 27.6086739,75.0225776 29.7703174,74.3831897 C32.5014261,73.5748534 33.8865261,72.464319 33.8865261,71.0823362 C33.8865261,69.6427414 32.3299174,68.5269052 29.1279522,67.6712069 C28.5898304,67.5273534 28.0372696,67.8486379 27.8939348,68.3890603 C27.7506,68.9291293 28.0707261,69.4836897 28.6088478,69.6275431 C30.8838913,70.2354741 31.6998783,70.8709741 31.8558913,71.101069 C31.5146348,71.8242241 27.7097478,73.3649052 22.2658435,73.3649052 C16.7842565,73.3649052 12.9638739,71.8026638 12.6715696,71.107431 C12.8117348,70.8918276 13.5791217,70.2768276 15.7407652,69.6773793 C16.2778304,69.5282241 16.5926739,68.9704828 16.4440565,68.4318276 C16.2957913,67.8931724 15.7407652,67.5778966 15.2033478,67.7259914 C12.1362652,68.5767414 10.6451609,69.6749052 10.6451609,71.0823362" id="Fill-3" fill="#343135" sketch:type="MSShapeGroup"></path>
            <path d="M50.3974957,67.2824138 C52.8359478,67.2824138 54.2013261,68.0755517 54.304513,68.3487672 C54.304513,68.9079224 54.756,69.3610431 55.3131391,69.3610431 C55.8706304,69.3610431 56.3221174,68.9079224 56.3221174,68.3487672 C56.3221174,66.3192672 53.3416696,65.2575086 50.3974957,65.2575086 C47.4536739,65.2575086 44.4732261,66.3192672 44.4732261,68.3487672 C44.4732261,70.3782672 47.4536739,71.4400259 50.3974957,71.4400259 C50.9546348,71.4400259 51.4061217,70.9865517 51.4061217,70.42775 C51.4061217,69.8685948 50.9546348,69.4151207 50.3974957,69.4151207 C48.0326478,69.4151207 46.6771304,68.6689914 46.4996348,68.3487672 C46.6771304,68.0285431 48.0326478,67.2824138 50.3974957,67.2824138" id="Fill-4" fill="#343135" sketch:type="MSShapeGroup"></path>
            <path d="M67.2743739,69.3610431 C69.7131783,69.3610431 71.0778522,70.1545345 71.1813913,70.42775 C71.1813913,70.9865517 71.6328783,71.4400259 72.1900174,71.4400259 C72.7471565,71.4400259 73.1986435,70.9865517 73.1986435,70.42775 C73.1986435,68.39825 70.2185478,67.3364914 67.2743739,67.3364914 C64.3302,67.3364914 61.3501043,68.39825 61.3501043,70.42775 C61.3501043,72.4568966 64.3302,73.5186552 67.2743739,73.5186552 C67.8318652,73.5186552 68.2833522,73.065181 68.2833522,72.5063793 C68.2833522,71.9472241 67.8318652,71.4941034 67.2743739,71.4941034 C64.9091739,71.4941034 63.5536565,70.7476207 63.376513,70.42775 C63.5536565,70.1075259 64.9091739,69.3610431 67.2743739,69.3610431" id="Fill-5" fill="#343135" sketch:type="MSShapeGroup"></path>
            <path d="M29.1666913,39.8686121 L34.313713,39.8686121 C34.8708522,39.8686121 35.3223391,39.4154914 35.3223391,38.8563362 C35.3223391,36.0315776 33.2343,33.6868017 30.5260826,33.2955345 L30.5260826,30.9853966 C30.5260826,30.0841034 30.8757913,29.2368879 31.5104087,28.5996207 L34.6482783,25.4503966 C35.0423609,25.0552414 35.0423609,24.4144397 34.6482783,24.018931 C34.2545478,23.6237759 33.6157043,23.6237759 33.2219739,24.018931 L30.0841043,27.1681552 C29.0680826,28.1875 28.5088304,29.5433276 28.5088304,30.9853966 L28.5088304,34.2505517 C28.5088304,34.8097069 28.9603174,35.2628276 29.5174565,35.2628276 L29.7245348,35.2628276 C31.3487609,35.2628276 32.7236478,36.353569 33.1603435,37.8440603 L29.1666913,37.8440603 C27.3857478,37.8440603 25.9369043,36.3899741 25.9369043,34.6022328 L25.9369043,31.4003448 C25.9369043,29.0014914 26.8677,26.7461379 28.5577826,25.0499397 L33.1938,20.3971466 C34.2253174,21.7211638 35.8104522,22.5888793 37.6090043,22.598069 L37.6090043,38.8563362 C37.6090043,39.4154914 38.0604913,39.8686121 38.6176304,39.8686121 L42.6528391,39.8686121 C43.2099783,39.8686121 43.6614652,39.4154914 43.6614652,38.8563362 L43.6614652,22.598069 C45.4600174,22.5888793 47.0455043,21.7208103 48.0770217,20.3964397 L52.7133913,25.0499397 C54.4034739,26.7461379 55.3342696,29.0018448 55.3342696,31.4003448 L55.3342696,34.6022328 C55.3342696,36.3899741 53.8854261,37.8440603 52.1044826,37.8440603 L48.1104783,37.8440603 C48.5471739,36.353569 49.922413,35.2628276 51.5466391,35.2628276 L51.7540696,35.2628276 C52.3112087,35.2628276 52.7626957,34.8097069 52.7626957,34.2505517 L52.7626957,30.9853966 C52.7626957,29.5433276 52.2034435,28.1878534 51.1870696,27.1681552 L47.6540609,23.6223621 C47.2603304,23.2268534 46.6218391,23.2268534 46.2281087,23.6220086 C45.8340261,24.0175172 45.8340261,24.658319 46.2281087,25.0538276 L49.7607652,28.5996207 C50.3957348,29.2368879 50.7454435,30.0841034 50.7454435,30.9853966 L50.7454435,33.2955345 C48.0368739,33.6868017 45.9488348,36.0315776 45.9488348,38.8563362 C45.9488348,39.4154914 46.4003217,39.8686121 46.9574609,39.8686121 L52.1044826,39.8686121 C54.9975913,39.8686121 57.3515217,37.5061638 57.3515217,34.6022328 L57.3515217,31.4003448 C57.3515217,28.461069 56.2108304,25.6971034 54.1396957,23.6184741 L49.2536348,18.7143793 C49.1860174,18.6465172 49.1039609,18.6062241 49.0243696,18.5616897 C49.1835522,18.0378793 49.294487,17.493569 49.294487,16.9185086 L49.294487,13.6628966 C49.294487,13.1040948 48.843,12.6506207 48.2858609,12.6506207 L44.8666043,12.6506207 L44.8666043,2.34442241 L50.1361826,2.34442241 C50.6933217,2.34442241 51.1448087,1.89130172 51.1448087,1.33214655 C51.1448087,0.772991379 50.6933217,0.31987069 50.1361826,0.31987069 L30.8641696,0.31987069 C30.3070304,0.31987069 29.8551913,0.772991379 29.8551913,1.33214655 C29.8551913,1.89130172 30.3070304,2.34442241 30.8641696,2.34442241 L36.4422522,2.34442241 L36.4422522,12.6506207 L32.9842565,12.6506207 C32.4274696,12.6506207 31.9756304,13.1040948 31.9756304,13.6628966 L31.9756304,16.9185086 C31.9756304,17.5441121 32.1013565,18.135431 32.2883609,18.699181 C32.1017087,18.7373534 31.9210435,18.8108707 31.7763,18.9561379 L27.1314783,23.6184741 C25.0603435,25.6971034 23.9196522,28.4607155 23.9196522,31.4003448 L23.9196522,34.6022328 C23.9196522,37.5061638 26.2735826,39.8686121 29.1666913,39.8686121 L29.1666913,39.8686121 Z M39.6262565,22.6008966 L41.644213,22.6008966 L41.644213,37.8437069 L39.6262565,37.8437069 L39.6262565,22.6008966 Z M38.4595043,2.34442241 L42.8493522,2.34442241 L42.8493522,12.6506207 L38.4595043,12.6506207 L38.4595043,2.34442241 Z M33.9928826,14.6755259 L47.2772348,14.6755259 L47.2772348,16.9185086 C47.2772348,18.9352845 45.6420913,20.5763448 43.6322348,20.5763448 L37.6378826,20.5763448 C35.6280261,20.5763448 33.9928826,18.9352845 33.9928826,16.9185086 L33.9928826,14.6755259 L33.9928826,14.6755259 Z" id="Fill-6" fill="#343135" sketch:type="MSShapeGroup"></path>
        </g>
    </g>
</svg>